<mxfile host="app.diagrams.net" agent="Mozilla/5.0 (Windows NT 10.0; Win64; x64) AppleWebKit/537.36 (KHTML, like Gecko) Chrome/131.0.0.0 Safari/537.36" version="25.0.3">
  <diagram name="第 1 页" id="x79DfxnwyBFoaVYWa-ME">
    <mxGraphModel dx="989" dy="532" grid="1" gridSize="10" guides="1" tooltips="1" connect="1" arrows="1" fold="1" page="1" pageScale="1" pageWidth="3300" pageHeight="4681" math="0" shadow="0">
      <root>
        <mxCell id="0" />
        <mxCell id="1" parent="0" />
        <mxCell id="AN60eJWAK5SgZAsSh-RL-7" value="顯示" style="ellipse;shape=umlControl;whiteSpace=wrap;html=1;" parent="1" vertex="1">
          <mxGeometry x="425" y="10" width="70" height="80" as="geometry" />
        </mxCell>
        <mxCell id="AN60eJWAK5SgZAsSh-RL-8" value="行程資料庫" style="ellipse;shape=umlEntity;whiteSpace=wrap;html=1;" parent="1" vertex="1">
          <mxGeometry x="777" y="10" width="80" height="80" as="geometry" />
        </mxCell>
        <mxCell id="AN60eJWAK5SgZAsSh-RL-10" value="Actor" style="shape=umlActor;verticalLabelPosition=bottom;verticalAlign=top;html=1;" parent="1" vertex="1">
          <mxGeometry x="70" y="50" width="30" height="60" as="geometry" />
        </mxCell>
        <mxCell id="AN60eJWAK5SgZAsSh-RL-11" value="使用者ui" style="shape=umlLifeline;perimeter=lifelinePerimeter;whiteSpace=wrap;html=1;container=1;dropTarget=0;collapsible=0;recursiveResize=0;outlineConnect=0;portConstraint=eastwest;newEdgeStyle={&quot;curved&quot;:0,&quot;rounded&quot;:0};size=50;" parent="1" vertex="1">
          <mxGeometry x="190" y="40" width="120" height="450" as="geometry" />
        </mxCell>
        <mxCell id="AN60eJWAK5SgZAsSh-RL-13" value="" style="html=1;points=[[0,0,0,0,5],[0,1,0,0,-5],[1,0,0,0,5],[1,1,0,0,-5]];perimeter=orthogonalPerimeter;outlineConnect=0;targetShapes=umlLifeline;portConstraint=eastwest;newEdgeStyle={&quot;curved&quot;:0,&quot;rounded&quot;:0};fillColor=#808080;" parent="AN60eJWAK5SgZAsSh-RL-11" vertex="1">
          <mxGeometry x="55" y="100" width="10" height="230" as="geometry" />
        </mxCell>
        <mxCell id="AN60eJWAK5SgZAsSh-RL-14" value="&lt;font style=&quot;vertical-align: inherit;&quot;&gt;&lt;font style=&quot;vertical-align: inherit;&quot;&gt;Opt&lt;/font&gt;&lt;/font&gt;" style="shape=umlFrame;whiteSpace=wrap;html=1;pointerEvents=0;recursiveResize=0;container=1;collapsible=0;width=170;" parent="1" vertex="1">
          <mxGeometry x="255" y="140" width="205" height="260" as="geometry" />
        </mxCell>
        <mxCell id="AN60eJWAK5SgZAsSh-RL-15" value="&lt;font style=&quot;vertical-align: inherit;&quot;&gt;&lt;font style=&quot;vertical-align: inherit;&quot;&gt;[查看月曆]&lt;/font&gt;&lt;/font&gt;" style="text;html=1;" parent="AN60eJWAK5SgZAsSh-RL-14" vertex="1">
          <mxGeometry width="60" height="20" relative="1" as="geometry">
            <mxPoint y="30" as="offset" />
          </mxGeometry>
        </mxCell>
        <mxCell id="LllymJ43TnrRqsEVC5Kz-8" value="&lt;font style=&quot;vertical-align: inherit;&quot;&gt;&lt;font style=&quot;vertical-align: inherit;&quot;&gt;[查看日曆]&lt;/font&gt;&lt;/font&gt;" style="text;html=1;" vertex="1" parent="AN60eJWAK5SgZAsSh-RL-14">
          <mxGeometry y="130" width="60" height="20" as="geometry" />
        </mxCell>
        <mxCell id="AN60eJWAK5SgZAsSh-RL-20" value="&lt;font style=&quot;vertical-align: inherit;&quot;&gt;&lt;font style=&quot;vertical-align: inherit;&quot;&gt;&lt;font style=&quot;vertical-align: inherit;&quot;&gt;&lt;font style=&quot;vertical-align: inherit;&quot;&gt;3.顯示月曆()&lt;/font&gt;&lt;/font&gt;&lt;/font&gt;&lt;/font&gt;" style="html=1;verticalAlign=bottom;labelBackgroundColor=none;endArrow=open;endFill=0;dashed=1;rounded=0;" parent="AN60eJWAK5SgZAsSh-RL-14" target="AN60eJWAK5SgZAsSh-RL-13" edge="1">
          <mxGeometry x="-0.0001" width="160" relative="1" as="geometry">
            <mxPoint x="196.51" y="109.99999999999994" as="sourcePoint" />
            <mxPoint x="-0.004999999999881766" y="109.99999999999994" as="targetPoint" />
            <mxPoint as="offset" />
          </mxGeometry>
        </mxCell>
        <mxCell id="AN60eJWAK5SgZAsSh-RL-27" value="" style="html=1;verticalAlign=bottom;labelBackgroundColor=none;endArrow=open;endFill=0;rounded=0;" parent="AN60eJWAK5SgZAsSh-RL-14" edge="1">
          <mxGeometry width="160" relative="1" as="geometry">
            <mxPoint y="170" as="sourcePoint" />
            <mxPoint x="200" y="170" as="targetPoint" />
            <Array as="points">
              <mxPoint x="95" y="170" />
            </Array>
          </mxGeometry>
        </mxCell>
        <mxCell id="LllymJ43TnrRqsEVC5Kz-6" value="4.查看日曆()" style="edgeLabel;html=1;align=center;verticalAlign=middle;resizable=0;points=[];" vertex="1" connectable="0" parent="AN60eJWAK5SgZAsSh-RL-27">
          <mxGeometry x="0.1105" y="1" relative="1" as="geometry">
            <mxPoint x="-8" y="-9" as="offset" />
          </mxGeometry>
        </mxCell>
        <mxCell id="AN60eJWAK5SgZAsSh-RL-19" value="&lt;font style=&quot;vertical-align: inherit;&quot;&gt;&lt;font style=&quot;vertical-align: inherit;&quot;&gt;&lt;font style=&quot;vertical-align: inherit;&quot;&gt;&lt;font style=&quot;vertical-align: inherit;&quot;&gt;&lt;font style=&quot;vertical-align: inherit;&quot;&gt;&lt;font style=&quot;vertical-align: inherit;&quot;&gt;&lt;font style=&quot;vertical-align: inherit;&quot;&gt;&lt;font style=&quot;vertical-align: inherit;&quot;&gt;&lt;font style=&quot;vertical-align: inherit;&quot;&gt;&lt;font style=&quot;vertical-align: inherit;&quot;&gt;5. 顯示日&lt;/font&gt;&lt;/font&gt;&lt;/font&gt;&lt;/font&gt;&lt;/font&gt;&lt;/font&gt;&lt;/font&gt;&lt;/font&gt;&lt;/font&gt;&lt;/font&gt;&lt;span style=&quot;background-color: initial;&quot;&gt;&lt;font style=&quot;vertical-align: inherit;&quot;&gt;&lt;font style=&quot;vertical-align: inherit;&quot;&gt;曆()&lt;/font&gt;&lt;/font&gt;&lt;/span&gt;" style="html=1;verticalAlign=bottom;labelBackgroundColor=none;endArrow=open;endFill=0;dashed=1;rounded=0;exitX=0;exitY=1;exitDx=0;exitDy=-5;exitPerimeter=0;" parent="AN60eJWAK5SgZAsSh-RL-14" edge="1" target="AN60eJWAK5SgZAsSh-RL-13">
          <mxGeometry x="0.004" width="160" relative="1" as="geometry">
            <mxPoint x="200" y="230" as="sourcePoint" />
            <mxPoint x="-5" y="230" as="targetPoint" />
            <mxPoint as="offset" />
          </mxGeometry>
        </mxCell>
        <mxCell id="AN60eJWAK5SgZAsSh-RL-21" value="" style="endArrow=open;startArrow=none;endFill=0;startFill=0;endSize=8;html=1;verticalAlign=bottom;labelBackgroundColor=none;strokeWidth=1;rounded=0;" parent="1" target="AN60eJWAK5SgZAsSh-RL-13" edge="1">
          <mxGeometry width="160" relative="1" as="geometry">
            <mxPoint x="80" y="140" as="sourcePoint" />
            <mxPoint x="225" y="140" as="targetPoint" />
          </mxGeometry>
        </mxCell>
        <mxCell id="AN60eJWAK5SgZAsSh-RL-22" value="&lt;font style=&quot;vertical-align: inherit;&quot;&gt;&lt;font style=&quot;vertical-align: inherit;&quot;&gt;&lt;font style=&quot;vertical-align: inherit;&quot;&gt;&lt;font style=&quot;vertical-align: inherit;&quot;&gt;&lt;font style=&quot;vertical-align: inherit;&quot;&gt;&lt;font style=&quot;vertical-align: inherit;&quot;&gt;1.選擇查看月曆或日曆()&lt;/font&gt;&lt;/font&gt;&lt;/font&gt;&lt;/font&gt;&lt;/font&gt;&lt;/font&gt;" style="edgeLabel;html=1;align=center;verticalAlign=middle;resizable=0;points=[];" parent="AN60eJWAK5SgZAsSh-RL-21" vertex="1" connectable="0">
          <mxGeometry x="0.084" y="9" relative="1" as="geometry">
            <mxPoint x="1" as="offset" />
          </mxGeometry>
        </mxCell>
        <mxCell id="AN60eJWAK5SgZAsSh-RL-26" value="" style="endArrow=none;startArrow=none;endFill=0;startFill=0;endSize=8;html=1;verticalAlign=bottom;labelBackgroundColor=none;strokeWidth=1;rounded=0;exitX=0.333;exitY=1;exitDx=0;exitDy=0;exitPerimeter=0;dashed=1;" parent="1" source="AN60eJWAK5SgZAsSh-RL-10" edge="1">
          <mxGeometry width="160" relative="1" as="geometry">
            <mxPoint x="70" y="210" as="sourcePoint" />
            <mxPoint x="80" y="491.3333435058594" as="targetPoint" />
          </mxGeometry>
        </mxCell>
        <mxCell id="AN60eJWAK5SgZAsSh-RL-28" value="" style="endArrow=none;startArrow=none;endFill=0;startFill=0;endSize=8;html=1;verticalAlign=bottom;labelBackgroundColor=none;strokeWidth=1;rounded=0;exitX=0.333;exitY=1;exitDx=0;exitDy=0;exitPerimeter=0;dashed=1;" parent="1" source="LllymJ43TnrRqsEVC5Kz-9" edge="1">
          <mxGeometry width="160" relative="1" as="geometry">
            <mxPoint x="716.5" y="120" as="sourcePoint" />
            <mxPoint x="815" y="520" as="targetPoint" />
          </mxGeometry>
        </mxCell>
        <mxCell id="AN60eJWAK5SgZAsSh-RL-35" value="&lt;font style=&quot;vertical-align: inherit;&quot;&gt;&lt;font style=&quot;vertical-align: inherit;&quot;&gt;&lt;font style=&quot;vertical-align: inherit;&quot;&gt;&lt;font style=&quot;vertical-align: inherit;&quot;&gt;&lt;font style=&quot;vertical-align: inherit;&quot;&gt;&lt;font style=&quot;vertical-align: inherit;&quot;&gt;&lt;font style=&quot;vertical-align: inherit;&quot;&gt;&lt;font style=&quot;vertical-align: inherit;&quot;&gt;&lt;font style=&quot;vertical-align: inherit;&quot;&gt;&lt;font style=&quot;vertical-align: inherit;&quot;&gt;2.1.讀取資料()&lt;/font&gt;&lt;/font&gt;&lt;/font&gt;&lt;/font&gt;&lt;/font&gt;&lt;/font&gt;&lt;/font&gt;&lt;/font&gt;&lt;/font&gt;&lt;/font&gt;" style="html=1;verticalAlign=bottom;labelBackgroundColor=none;endArrow=open;endFill=0;rounded=0;" parent="1" edge="1" source="AN60eJWAK5SgZAsSh-RL-12">
          <mxGeometry x="-0.0004" width="160" relative="1" as="geometry">
            <mxPoint x="610" y="220" as="sourcePoint" />
            <mxPoint x="810" y="210" as="targetPoint" />
            <mxPoint as="offset" />
          </mxGeometry>
        </mxCell>
        <mxCell id="AN60eJWAK5SgZAsSh-RL-36" value="&lt;font style=&quot;vertical-align: inherit;&quot;&gt;&lt;font style=&quot;vertical-align: inherit;&quot;&gt;&lt;font style=&quot;vertical-align: inherit;&quot;&gt;&lt;font style=&quot;vertical-align: inherit;&quot;&gt;2.2.顯示資料()&lt;/font&gt;&lt;/font&gt;&lt;/font&gt;&lt;/font&gt;" style="html=1;verticalAlign=bottom;labelBackgroundColor=none;endArrow=open;endFill=0;dashed=1;rounded=0;" parent="1" edge="1" target="AN60eJWAK5SgZAsSh-RL-12">
          <mxGeometry x="-0.0001" width="160" relative="1" as="geometry">
            <mxPoint x="812" y="240" as="sourcePoint" />
            <mxPoint x="465" y="240" as="targetPoint" />
            <mxPoint as="offset" />
          </mxGeometry>
        </mxCell>
        <mxCell id="AN60eJWAK5SgZAsSh-RL-39" value="" style="endArrow=none;startArrow=none;endFill=0;startFill=0;endSize=8;html=1;verticalAlign=bottom;labelBackgroundColor=none;strokeWidth=1;rounded=0;exitX=0.5;exitY=1;exitDx=0;exitDy=0;dashed=1;" parent="1" target="AN60eJWAK5SgZAsSh-RL-38" edge="1" source="AN60eJWAK5SgZAsSh-RL-8">
          <mxGeometry width="160" relative="1" as="geometry">
            <mxPoint x="816.5" y="120" as="sourcePoint" />
            <mxPoint x="816.5" y="501.3333435058594" as="targetPoint" />
          </mxGeometry>
        </mxCell>
        <mxCell id="AN60eJWAK5SgZAsSh-RL-38" value="" style="html=1;points=[[0,0,0,0,5],[0,1,0,0,-5],[1,0,0,0,5],[1,1,0,0,-5]];perimeter=orthogonalPerimeter;outlineConnect=0;targetShapes=umlLifeline;portConstraint=eastwest;newEdgeStyle={&quot;curved&quot;:0,&quot;rounded&quot;:0};fillColor=#808080;" parent="1" vertex="1">
          <mxGeometry x="812" y="210" width="10" height="30" as="geometry" />
        </mxCell>
        <mxCell id="AN60eJWAK5SgZAsSh-RL-43" value="&lt;font style=&quot;vertical-align: inherit;&quot;&gt;&lt;font style=&quot;vertical-align: inherit;&quot;&gt;&lt;font style=&quot;vertical-align: inherit;&quot;&gt;&lt;font style=&quot;vertical-align: inherit;&quot;&gt;4.2.顯示資料()&lt;/font&gt;&lt;/font&gt;&lt;/font&gt;&lt;/font&gt;" style="html=1;verticalAlign=bottom;labelBackgroundColor=none;endArrow=open;endFill=0;dashed=1;rounded=0;" parent="1" edge="1" target="AN60eJWAK5SgZAsSh-RL-12">
          <mxGeometry x="-0.0001" width="160" relative="1" as="geometry">
            <mxPoint x="807" y="349.43" as="sourcePoint" />
            <mxPoint x="460" y="349.43" as="targetPoint" />
            <mxPoint as="offset" />
          </mxGeometry>
        </mxCell>
        <mxCell id="AN60eJWAK5SgZAsSh-RL-32" value="" style="endArrow=none;startArrow=none;endFill=0;startFill=0;endSize=8;html=1;verticalAlign=bottom;labelBackgroundColor=none;strokeWidth=1;rounded=0;dashed=1;" parent="1" edge="1" source="AN60eJWAK5SgZAsSh-RL-12">
          <mxGeometry width="160" relative="1" as="geometry">
            <mxPoint x="450.00438090849326" y="74.85585496063085" as="sourcePoint" />
            <mxPoint x="460" y="510" as="targetPoint" />
          </mxGeometry>
        </mxCell>
        <mxCell id="LllymJ43TnrRqsEVC5Kz-2" value="建立&lt;span style=&quot;color: rgba(0, 0, 0, 0); font-family: monospace; font-size: 0px; text-align: start; text-wrap-mode: nowrap;&quot;&gt;%3CmxGraphModel%3E%3Croot%3E%3CmxCell%20id%3D%220%22%2F%3E%3CmxCell%20id%3D%221%22%20parent%3D%220%22%2F%3E%3CmxCell%20id%3D%222%22%20value%3D%22%E9%A1%AF%E7%A4%BA%22%20style%3D%22ellipse%3Bshape%3DumlControl%3BwhiteSpace%3Dwrap%3Bhtml%3D1%3B%22%20vertex%3D%221%22%20parent%3D%221%22%3E%3CmxGeometry%20x%3D%22405%22%20width%3D%2270%22%20height%3D%2280%22%20as%3D%22geometry%22%2F%3E%3C%2FmxCell%3E%3CmxCell%20id%3D%223%22%20value%3D%22%22%20style%3D%22endArrow%3Dnone%3BstartArrow%3Dnone%3BendFill%3D0%3BstartFill%3D0%3BendSize%3D8%3Bhtml%3D1%3BverticalAlign%3Dbottom%3BlabelBackgroundColor%3Dnone%3BstrokeWidth%3D1%3Brounded%3D0%3Bdashed%3D1%3B%22%20edge%3D%221%22%20source%3D%222%22%20parent%3D%221%22%3E%3CmxGeometry%20width%3D%22160%22%20relative%3D%221%22%20as%3D%22geometry%22%3E%3CmxPoint%20x%3D%22450.00438090849326%22%20y%3D%2274.85585496063085%22%20as%3D%22sourcePoint%22%2F%3E%3CmxPoint%20x%3D%22440%22%20y%3D%22510%22%20as%3D%22targetPoint%22%2F%3E%3C%2FmxGeometry%3E%3C%2FmxCell%3E%3C%2Froot%3E%3C%2FmxGraphModel%3E&lt;/span&gt;" style="ellipse;shape=umlControl;whiteSpace=wrap;html=1;" vertex="1" parent="1">
          <mxGeometry x="530" y="10" width="70" height="80" as="geometry" />
        </mxCell>
        <mxCell id="LllymJ43TnrRqsEVC5Kz-3" value="" style="endArrow=none;startArrow=none;endFill=0;startFill=0;endSize=8;html=1;verticalAlign=bottom;labelBackgroundColor=none;strokeWidth=1;rounded=0;dashed=1;" edge="1" parent="1" source="LllymJ43TnrRqsEVC5Kz-2">
          <mxGeometry width="160" relative="1" as="geometry">
            <mxPoint x="575.0043809084932" y="84.85585496063085" as="sourcePoint" />
            <mxPoint x="565" y="520" as="targetPoint" />
          </mxGeometry>
        </mxCell>
        <mxCell id="LllymJ43TnrRqsEVC5Kz-4" value="維護" style="ellipse;shape=umlControl;whiteSpace=wrap;html=1;" vertex="1" parent="1">
          <mxGeometry x="640" y="10" width="70" height="80" as="geometry" />
        </mxCell>
        <mxCell id="LllymJ43TnrRqsEVC5Kz-5" value="" style="endArrow=none;startArrow=none;endFill=0;startFill=0;endSize=8;html=1;verticalAlign=bottom;labelBackgroundColor=none;strokeWidth=1;rounded=0;dashed=1;" edge="1" parent="1" source="LllymJ43TnrRqsEVC5Kz-4">
          <mxGeometry width="160" relative="1" as="geometry">
            <mxPoint x="685.0043809084932" y="84.85585496063085" as="sourcePoint" />
            <mxPoint x="675" y="520" as="targetPoint" />
          </mxGeometry>
        </mxCell>
        <mxCell id="LllymJ43TnrRqsEVC5Kz-7" value="" style="endArrow=none;dashed=1;html=1;rounded=0;" edge="1" parent="1" source="AN60eJWAK5SgZAsSh-RL-13" target="AN60eJWAK5SgZAsSh-RL-12">
          <mxGeometry width="50" height="50" relative="1" as="geometry">
            <mxPoint x="380" y="310" as="sourcePoint" />
            <mxPoint x="430" y="260" as="targetPoint" />
            <Array as="points">
              <mxPoint x="370" y="265" />
            </Array>
          </mxGeometry>
        </mxCell>
        <mxCell id="LllymJ43TnrRqsEVC5Kz-11" value="&lt;font style=&quot;vertical-align: inherit;&quot;&gt;&lt;font style=&quot;vertical-align: inherit;&quot;&gt;&lt;font style=&quot;vertical-align: inherit;&quot;&gt;&lt;font style=&quot;vertical-align: inherit;&quot;&gt;4.1.讀取資料()&lt;/font&gt;&lt;/font&gt;&lt;/font&gt;&lt;/font&gt;" style="html=1;verticalAlign=bottom;labelBackgroundColor=none;endArrow=open;endFill=0;dashed=1;rounded=0;" edge="1" parent="1" source="AN60eJWAK5SgZAsSh-RL-12" target="LllymJ43TnrRqsEVC5Kz-9">
          <mxGeometry x="-0.0001" width="160" relative="1" as="geometry">
            <mxPoint x="726" y="331" as="sourcePoint" />
            <mxPoint x="810" y="320" as="targetPoint" />
            <mxPoint as="offset" />
          </mxGeometry>
        </mxCell>
        <mxCell id="LllymJ43TnrRqsEVC5Kz-12" value="" style="endArrow=none;startArrow=none;endFill=0;startFill=0;endSize=8;html=1;verticalAlign=bottom;labelBackgroundColor=none;strokeWidth=1;rounded=0;exitX=0.333;exitY=1;exitDx=0;exitDy=0;exitPerimeter=0;dashed=1;" edge="1" parent="1" source="AN60eJWAK5SgZAsSh-RL-38" target="LllymJ43TnrRqsEVC5Kz-9">
          <mxGeometry width="160" relative="1" as="geometry">
            <mxPoint x="815" y="240" as="sourcePoint" />
            <mxPoint x="815" y="520" as="targetPoint" />
          </mxGeometry>
        </mxCell>
        <mxCell id="LllymJ43TnrRqsEVC5Kz-9" value="" style="html=1;points=[[0,0,0,0,5],[0,1,0,0,-5],[1,0,0,0,5],[1,1,0,0,-5]];perimeter=orthogonalPerimeter;outlineConnect=0;targetShapes=umlLifeline;portConstraint=eastwest;newEdgeStyle={&quot;curved&quot;:0,&quot;rounded&quot;:0};fillColor=#808080;" vertex="1" parent="1">
          <mxGeometry x="812" y="320" width="10" height="30" as="geometry" />
        </mxCell>
        <mxCell id="LllymJ43TnrRqsEVC5Kz-13" value="" style="endArrow=none;startArrow=none;endFill=0;startFill=0;endSize=8;html=1;verticalAlign=bottom;labelBackgroundColor=none;strokeWidth=1;rounded=0;dashed=1;" edge="1" parent="1" source="AN60eJWAK5SgZAsSh-RL-7" target="AN60eJWAK5SgZAsSh-RL-12">
          <mxGeometry width="160" relative="1" as="geometry">
            <mxPoint x="460" y="90" as="sourcePoint" />
            <mxPoint x="460" y="510" as="targetPoint" />
          </mxGeometry>
        </mxCell>
        <mxCell id="AN60eJWAK5SgZAsSh-RL-12" value="" style="html=1;points=[[0,0,0,0,5],[0,1,0,0,-5],[1,0,0,0,5],[1,1,0,0,-5]];perimeter=orthogonalPerimeter;outlineConnect=0;targetShapes=umlLifeline;portConstraint=eastwest;newEdgeStyle={&quot;curved&quot;:0,&quot;rounded&quot;:0};fillColor=#808080;" parent="1" vertex="1">
          <mxGeometry x="455" y="200" width="10" height="170" as="geometry" />
        </mxCell>
        <mxCell id="AN60eJWAK5SgZAsSh-RL-17" value="&lt;font style=&quot;vertical-align: inherit;&quot;&gt;&lt;font style=&quot;vertical-align: inherit;&quot;&gt;&lt;font style=&quot;vertical-align: inherit;&quot;&gt;&lt;font style=&quot;vertical-align: inherit;&quot;&gt;&lt;font style=&quot;vertical-align: inherit;&quot;&gt;&lt;font style=&quot;vertical-align: inherit;&quot;&gt;&lt;font style=&quot;vertical-align: inherit;&quot;&gt;&lt;font style=&quot;vertical-align: inherit;&quot;&gt;&lt;font style=&quot;vertical-align: inherit;&quot;&gt;&lt;font style=&quot;vertical-align: inherit;&quot;&gt;2.查看月曆()&lt;/font&gt;&lt;/font&gt;&lt;/font&gt;&lt;/font&gt;&lt;/font&gt;&lt;/font&gt;&lt;/font&gt;&lt;/font&gt;&lt;/font&gt;&lt;/font&gt;" style="html=1;verticalAlign=bottom;labelBackgroundColor=none;endArrow=open;endFill=0;rounded=0;exitX=0;exitY=0.231;exitDx=0;exitDy=0;exitPerimeter=0;" parent="1" target="AN60eJWAK5SgZAsSh-RL-12" edge="1" source="AN60eJWAK5SgZAsSh-RL-14">
          <mxGeometry x="-0.0004" width="160" relative="1" as="geometry">
            <mxPoint x="275" y="195.89999999999998" as="sourcePoint" />
            <mxPoint x="482.48000000000025" y="200.0000000000001" as="targetPoint" />
            <mxPoint as="offset" />
            <Array as="points">
              <mxPoint x="440" y="200" />
            </Array>
          </mxGeometry>
        </mxCell>
      </root>
    </mxGraphModel>
  </diagram>
</mxfile>
